<?xml version="1.0" standalone="no"?>
<!DOCTYPE svg PUBLIC "-//W3C//DTD SVG 20010904//EN"
 "http://www.w3.org/TR/2001/REC-SVG-20010904/DTD/svg10.dtd">
<svg version="1.0" xmlns="http://www.w3.org/2000/svg"
 width="420.000000pt" height="420.000000pt" viewBox="0 0 420.000000 420.000000"
 preserveAspectRatio="xMidYMid meet">
<metadata>
Created by potrace 1.11, written by Peter Selinger 2001-2013
</metadata>
<g transform="translate(0.000000,420.000000) scale(0.100000,-0.100000)"
fill="#000000" stroke="none">
<path d="M2614 3679 c-61 -32 -168 -107 -239 -167 -40 -33 -40 -34 -115 -27
-79 7 -105 10 -184 20 l-48 7 22 20 21 20 -22 24 c-12 13 -24 24 -25 24 -1 0
-21 -18 -43 -40 -38 -38 -45 -41 -84 -36 -23 3 -71 8 -107 12 -86 9 -89 9 -95
15 -3 3 4 14 15 24 26 23 25 39 -2 57 -21 14 -25 13 -67 -29 l-45 -45 -65 7
c-36 4 -83 9 -104 11 -33 4 -38 2 -47 -21 -6 -17 -6 -37 3 -62 13 -41 45 -60
267 -162 52 -24 142 -66 200 -94 58 -27 115 -53 128 -58 29 -11 28 -17 -13
-64 -67 -75 -183 -233 -220 -300 l-37 -66 -62 7 c-33 4 -72 8 -86 10 -145 19
-167 16 -150 -16 9 -17 69 -49 197 -105 l41 -18 -34 -51 c-19 -28 -34 -54 -34
-58 0 -17 34 -6 76 24 24 17 45 29 47 27 2 -2 12 -24 22 -49 50 -118 90 -185
110 -185 14 0 20 6 19 20 -3 45 -14 151 -18 171 -13 68 -10 107 9 118 79 44
206 132 293 203 l102 84 51 -108 c27 -59 64 -139 82 -178 155 -335 164 -348
237 -343 l35 3 -1 60 c0 33 -3 81 -6 107 -5 46 -3 50 40 93 44 45 44 46 26 68
-10 12 -20 24 -21 26 -2 3 -17 -8 -33 -24 l-30 -29 -1 30 c-1 16 -2 34 -3 39
-1 6 -5 52 -10 104 l-8 94 36 33 c41 38 43 45 18 67 -23 21 -27 21 -47 1 -9
-9 -17 -15 -19 -13 -2 2 -6 33 -10 69 -6 63 -13 121 -22 187 -3 28 8 48 81
145 144 192 174 271 124 324 -31 33 -73 31 -145 -7z"/>
<path d="M667 2095 c-165 -46 -277 -231 -245 -405 35 -194 199 -373 570 -622
l126 -85 44 26 c64 38 193 126 273 187 311 234 440 467 369 668 -78 220 -294
303 -519 198 -62 -30 -139 -96 -150 -132 -8 -25 -22 -26 -30 -1 -9 30 -78 94
-134 125 -97 52 -210 68 -304 41z"/>
<path d="M2600 2032 c-6 -2 -10 -159 -10 -443 l0 -439 28 -1 c15 0 285 -2 599
-2 l573 -2 0 443 0 442 -37 1 c-163 2 -1145 3 -1153 1z"/>
</g>
</svg>
